<mxfile host="Electron" modified="2025-06-03T19:38:17.506Z" agent="Mozilla/5.0 (Windows NT 10.0; Win64; x64) AppleWebKit/537.36 (KHTML, like Gecko) draw.io/24.6.4 Chrome/124.0.6367.207 Electron/30.0.6 Safari/537.36" etag="2yGYjQhIqjAcW3yKSLf6" version="24.6.4" type="device" pages="2">
  <diagram name="Страница — 1" id="DBu6Dy7fjtyoBggLi8Jm">
    <mxGraphModel dx="2514" dy="1005" grid="1" gridSize="10" guides="1" tooltips="1" connect="1" arrows="1" fold="1" page="1" pageScale="1" pageWidth="827" pageHeight="1169" math="0" shadow="0">
      <root>
        <mxCell id="0" />
        <mxCell id="1" parent="0" />
        <mxCell id="rN1POa6k1bQ06xmlDgiG-11" value="" style="edgeStyle=orthogonalEdgeStyle;rounded=0;orthogonalLoop=1;jettySize=auto;html=1;" edge="1" parent="1" source="rN1POa6k1bQ06xmlDgiG-9" target="rN1POa6k1bQ06xmlDgiG-10">
          <mxGeometry relative="1" as="geometry" />
        </mxCell>
        <mxCell id="rN1POa6k1bQ06xmlDgiG-9" value="Очередь&lt;div&gt;rabbit&lt;/div&gt;" style="rounded=0;whiteSpace=wrap;html=1;fillColor=#dae8fc;strokeColor=#6c8ebf;" vertex="1" parent="1">
          <mxGeometry x="270" y="550" width="120" height="60" as="geometry" />
        </mxCell>
        <mxCell id="rN1POa6k1bQ06xmlDgiG-13" value="" style="edgeStyle=orthogonalEdgeStyle;rounded=0;orthogonalLoop=1;jettySize=auto;html=1;" edge="1" parent="1" source="rN1POa6k1bQ06xmlDgiG-10" target="rN1POa6k1bQ06xmlDgiG-12">
          <mxGeometry relative="1" as="geometry" />
        </mxCell>
        <mxCell id="rN1POa6k1bQ06xmlDgiG-10" value="Трансформируем" style="rounded=0;whiteSpace=wrap;html=1;fillColor=#dae8fc;strokeColor=#6c8ebf;" vertex="1" parent="1">
          <mxGeometry x="434" y="550" width="120" height="60" as="geometry" />
        </mxCell>
        <mxCell id="rN1POa6k1bQ06xmlDgiG-23" style="edgeStyle=orthogonalEdgeStyle;rounded=0;orthogonalLoop=1;jettySize=auto;html=1;entryX=0;entryY=0.5;entryDx=0;entryDy=0;" edge="1" parent="1" source="rN1POa6k1bQ06xmlDgiG-12" target="rN1POa6k1bQ06xmlDgiG-20">
          <mxGeometry relative="1" as="geometry" />
        </mxCell>
        <mxCell id="rN1POa6k1bQ06xmlDgiG-24" style="edgeStyle=orthogonalEdgeStyle;rounded=0;orthogonalLoop=1;jettySize=auto;html=1;entryX=0;entryY=0.5;entryDx=0;entryDy=0;" edge="1" parent="1" source="rN1POa6k1bQ06xmlDgiG-12" target="rN1POa6k1bQ06xmlDgiG-21">
          <mxGeometry relative="1" as="geometry" />
        </mxCell>
        <mxCell id="rN1POa6k1bQ06xmlDgiG-25" style="edgeStyle=orthogonalEdgeStyle;rounded=0;orthogonalLoop=1;jettySize=auto;html=1;entryX=0;entryY=0.5;entryDx=0;entryDy=0;" edge="1" parent="1" source="rN1POa6k1bQ06xmlDgiG-12" target="rN1POa6k1bQ06xmlDgiG-22">
          <mxGeometry relative="1" as="geometry" />
        </mxCell>
        <mxCell id="rN1POa6k1bQ06xmlDgiG-12" value="Exchange" style="rounded=0;whiteSpace=wrap;html=1;fillColor=#dae8fc;strokeColor=#6c8ebf;" vertex="1" parent="1">
          <mxGeometry x="601" y="550" width="120" height="60" as="geometry" />
        </mxCell>
        <mxCell id="rN1POa6k1bQ06xmlDgiG-17" style="edgeStyle=orthogonalEdgeStyle;rounded=0;orthogonalLoop=1;jettySize=auto;html=1;entryX=0.5;entryY=0;entryDx=0;entryDy=0;" edge="1" parent="1" source="rN1POa6k1bQ06xmlDgiG-14" target="rN1POa6k1bQ06xmlDgiG-9">
          <mxGeometry relative="1" as="geometry" />
        </mxCell>
        <mxCell id="rN1POa6k1bQ06xmlDgiG-14" value="api" style="rounded=0;whiteSpace=wrap;html=1;fillColor=#dae8fc;strokeColor=#6c8ebf;" vertex="1" parent="1">
          <mxGeometry x="113" y="430" width="120" height="60" as="geometry" />
        </mxCell>
        <mxCell id="rN1POa6k1bQ06xmlDgiG-18" style="edgeStyle=orthogonalEdgeStyle;rounded=0;orthogonalLoop=1;jettySize=auto;html=1;" edge="1" parent="1" source="rN1POa6k1bQ06xmlDgiG-15" target="rN1POa6k1bQ06xmlDgiG-9">
          <mxGeometry relative="1" as="geometry" />
        </mxCell>
        <mxCell id="rN1POa6k1bQ06xmlDgiG-15" value="rabbit&lt;div&gt;consumer&lt;/div&gt;" style="rounded=0;whiteSpace=wrap;html=1;fillColor=#dae8fc;strokeColor=#6c8ebf;" vertex="1" parent="1">
          <mxGeometry x="113" y="550" width="120" height="60" as="geometry" />
        </mxCell>
        <mxCell id="rN1POa6k1bQ06xmlDgiG-19" style="edgeStyle=orthogonalEdgeStyle;rounded=0;orthogonalLoop=1;jettySize=auto;html=1;entryX=0.5;entryY=1;entryDx=0;entryDy=0;" edge="1" parent="1" source="rN1POa6k1bQ06xmlDgiG-16" target="rN1POa6k1bQ06xmlDgiG-9">
          <mxGeometry relative="1" as="geometry" />
        </mxCell>
        <mxCell id="rN1POa6k1bQ06xmlDgiG-16" value="kafka&lt;div&gt;consumer&lt;/div&gt;" style="rounded=0;whiteSpace=wrap;html=1;fillColor=#dae8fc;strokeColor=#6c8ebf;" vertex="1" parent="1">
          <mxGeometry x="113" y="680" width="120" height="60" as="geometry" />
        </mxCell>
        <mxCell id="rN1POa6k1bQ06xmlDgiG-29" style="edgeStyle=orthogonalEdgeStyle;rounded=0;orthogonalLoop=1;jettySize=auto;html=1;entryX=0;entryY=0.5;entryDx=0;entryDy=0;" edge="1" parent="1" source="rN1POa6k1bQ06xmlDgiG-20" target="rN1POa6k1bQ06xmlDgiG-26">
          <mxGeometry relative="1" as="geometry" />
        </mxCell>
        <mxCell id="rN1POa6k1bQ06xmlDgiG-20" value="api queue" style="rounded=0;whiteSpace=wrap;html=1;fillColor=#dae8fc;strokeColor=#6c8ebf;" vertex="1" parent="1">
          <mxGeometry x="776" y="442" width="120" height="60" as="geometry" />
        </mxCell>
        <mxCell id="rN1POa6k1bQ06xmlDgiG-30" style="edgeStyle=orthogonalEdgeStyle;rounded=0;orthogonalLoop=1;jettySize=auto;html=1;entryX=0;entryY=0.5;entryDx=0;entryDy=0;" edge="1" parent="1" source="rN1POa6k1bQ06xmlDgiG-21" target="rN1POa6k1bQ06xmlDgiG-27">
          <mxGeometry relative="1" as="geometry" />
        </mxCell>
        <mxCell id="rN1POa6k1bQ06xmlDgiG-21" value="rabbit queue" style="rounded=0;whiteSpace=wrap;html=1;fillColor=#dae8fc;strokeColor=#6c8ebf;" vertex="1" parent="1">
          <mxGeometry x="776" y="550" width="120" height="60" as="geometry" />
        </mxCell>
        <mxCell id="rN1POa6k1bQ06xmlDgiG-31" style="edgeStyle=orthogonalEdgeStyle;rounded=0;orthogonalLoop=1;jettySize=auto;html=1;entryX=0;entryY=0.5;entryDx=0;entryDy=0;" edge="1" parent="1" source="rN1POa6k1bQ06xmlDgiG-22" target="rN1POa6k1bQ06xmlDgiG-28">
          <mxGeometry relative="1" as="geometry" />
        </mxCell>
        <mxCell id="rN1POa6k1bQ06xmlDgiG-22" value="kafka queue" style="rounded=0;whiteSpace=wrap;html=1;fillColor=#dae8fc;strokeColor=#6c8ebf;" vertex="1" parent="1">
          <mxGeometry x="776" y="657" width="120" height="60" as="geometry" />
        </mxCell>
        <mxCell id="rN1POa6k1bQ06xmlDgiG-58" style="edgeStyle=orthogonalEdgeStyle;rounded=0;orthogonalLoop=1;jettySize=auto;html=1;entryX=0;entryY=0.5;entryDx=0;entryDy=0;" edge="1" parent="1" source="rN1POa6k1bQ06xmlDgiG-26" target="rN1POa6k1bQ06xmlDgiG-55">
          <mxGeometry relative="1" as="geometry" />
        </mxCell>
        <mxCell id="rN1POa6k1bQ06xmlDgiG-26" value="api consumer" style="rounded=0;whiteSpace=wrap;html=1;fillColor=#dae8fc;strokeColor=#6c8ebf;" vertex="1" parent="1">
          <mxGeometry x="933" y="442" width="120" height="60" as="geometry" />
        </mxCell>
        <mxCell id="rN1POa6k1bQ06xmlDgiG-59" style="edgeStyle=orthogonalEdgeStyle;rounded=0;orthogonalLoop=1;jettySize=auto;html=1;entryX=0;entryY=0.5;entryDx=0;entryDy=0;" edge="1" parent="1" source="rN1POa6k1bQ06xmlDgiG-27" target="rN1POa6k1bQ06xmlDgiG-56">
          <mxGeometry relative="1" as="geometry" />
        </mxCell>
        <mxCell id="rN1POa6k1bQ06xmlDgiG-27" value="rabbit consumer" style="rounded=0;whiteSpace=wrap;html=1;fillColor=#dae8fc;strokeColor=#6c8ebf;" vertex="1" parent="1">
          <mxGeometry x="933" y="550" width="120" height="60" as="geometry" />
        </mxCell>
        <mxCell id="rN1POa6k1bQ06xmlDgiG-63" style="edgeStyle=orthogonalEdgeStyle;rounded=0;orthogonalLoop=1;jettySize=auto;html=1;" edge="1" parent="1" source="rN1POa6k1bQ06xmlDgiG-28" target="rN1POa6k1bQ06xmlDgiG-47">
          <mxGeometry relative="1" as="geometry">
            <Array as="points">
              <mxPoint x="1016" y="860" />
            </Array>
          </mxGeometry>
        </mxCell>
        <mxCell id="rN1POa6k1bQ06xmlDgiG-28" value="kafka consumer" style="rounded=0;whiteSpace=wrap;html=1;fillColor=#dae8fc;strokeColor=#6c8ebf;" vertex="1" parent="1">
          <mxGeometry x="933" y="657" width="120" height="60" as="geometry" />
        </mxCell>
        <mxCell id="rN1POa6k1bQ06xmlDgiG-32" value="&lt;h1 style=&quot;margin-top: 0px; font-size: 19px;&quot;&gt;account-crm-to-mdm&lt;/h1&gt;&lt;div style=&quot;font-size: 19px;&quot;&gt;&amp;nbsp; &amp;nbsp; &amp;nbsp; &amp;nbsp; &amp;nbsp;from:crm-queue&lt;/div&gt;&lt;div style=&quot;font-size: 19px;&quot;&gt;&amp;nbsp; &amp;nbsp; &amp;nbsp; &amp;nbsp; &amp;nbsp;to:rabbit-consumer&lt;/div&gt;&lt;div style=&quot;font-size: 19px;&quot;&gt;&amp;nbsp; &amp;nbsp; &amp;nbsp; &amp;nbsp; &amp;nbsp;format: json&lt;/div&gt;&lt;div style=&quot;font-size: 19px;&quot;&gt;&amp;nbsp; &amp;nbsp; &amp;nbsp; &amp;nbsp; &amp;nbsp;transform: file.xslt&lt;/div&gt;" style="text;html=1;whiteSpace=wrap;overflow=hidden;rounded=0;fontSize=19;" vertex="1" parent="1">
          <mxGeometry x="-120" y="220" width="290" height="140" as="geometry" />
        </mxCell>
        <mxCell id="rN1POa6k1bQ06xmlDgiG-47" value="Логи" style="shape=cylinder3;whiteSpace=wrap;html=1;boundedLbl=1;backgroundOutline=1;size=15;fillColor=#dae8fc;strokeColor=#6c8ebf;" vertex="1" parent="1">
          <mxGeometry x="444" y="820" width="100" height="80" as="geometry" />
        </mxCell>
        <mxCell id="rN1POa6k1bQ06xmlDgiG-48" style="edgeStyle=orthogonalEdgeStyle;rounded=0;orthogonalLoop=1;jettySize=auto;html=1;entryX=0.5;entryY=0;entryDx=0;entryDy=0;entryPerimeter=0;" edge="1" parent="1" source="rN1POa6k1bQ06xmlDgiG-10" target="rN1POa6k1bQ06xmlDgiG-47">
          <mxGeometry relative="1" as="geometry" />
        </mxCell>
        <mxCell id="rN1POa6k1bQ06xmlDgiG-67" value="hash(messageId)" style="edgeLabel;html=1;align=center;verticalAlign=middle;resizable=0;points=[];" vertex="1" connectable="0" parent="rN1POa6k1bQ06xmlDgiG-48">
          <mxGeometry x="0.2476" y="-1" relative="1" as="geometry">
            <mxPoint as="offset" />
          </mxGeometry>
        </mxCell>
        <mxCell id="rN1POa6k1bQ06xmlDgiG-52" style="edgeStyle=orthogonalEdgeStyle;rounded=0;orthogonalLoop=1;jettySize=auto;html=1;entryX=0;entryY=0.5;entryDx=0;entryDy=0;" edge="1" parent="1" source="rN1POa6k1bQ06xmlDgiG-49" target="rN1POa6k1bQ06xmlDgiG-14">
          <mxGeometry relative="1" as="geometry" />
        </mxCell>
        <mxCell id="rN1POa6k1bQ06xmlDgiG-49" value="client" style="rounded=0;whiteSpace=wrap;html=1;" vertex="1" parent="1">
          <mxGeometry x="-63" y="430" width="120" height="60" as="geometry" />
        </mxCell>
        <mxCell id="rN1POa6k1bQ06xmlDgiG-53" style="edgeStyle=orthogonalEdgeStyle;rounded=0;orthogonalLoop=1;jettySize=auto;html=1;entryX=0;entryY=0.5;entryDx=0;entryDy=0;" edge="1" parent="1" source="rN1POa6k1bQ06xmlDgiG-50" target="rN1POa6k1bQ06xmlDgiG-15">
          <mxGeometry relative="1" as="geometry" />
        </mxCell>
        <mxCell id="rN1POa6k1bQ06xmlDgiG-50" value="client&lt;div&gt;rabbit&lt;/div&gt;" style="rounded=0;whiteSpace=wrap;html=1;" vertex="1" parent="1">
          <mxGeometry x="-63" y="550" width="120" height="60" as="geometry" />
        </mxCell>
        <mxCell id="rN1POa6k1bQ06xmlDgiG-54" style="edgeStyle=orthogonalEdgeStyle;rounded=0;orthogonalLoop=1;jettySize=auto;html=1;entryX=0;entryY=0.5;entryDx=0;entryDy=0;" edge="1" parent="1" source="rN1POa6k1bQ06xmlDgiG-51" target="rN1POa6k1bQ06xmlDgiG-16">
          <mxGeometry relative="1" as="geometry" />
        </mxCell>
        <mxCell id="rN1POa6k1bQ06xmlDgiG-51" value="client&lt;div&gt;kafka&lt;/div&gt;" style="rounded=0;whiteSpace=wrap;html=1;" vertex="1" parent="1">
          <mxGeometry x="-63" y="680" width="120" height="60" as="geometry" />
        </mxCell>
        <mxCell id="rN1POa6k1bQ06xmlDgiG-55" value="client" style="rounded=0;whiteSpace=wrap;html=1;" vertex="1" parent="1">
          <mxGeometry x="1098" y="442" width="120" height="60" as="geometry" />
        </mxCell>
        <mxCell id="rN1POa6k1bQ06xmlDgiG-56" value="client&lt;div&gt;rabbit&lt;/div&gt;" style="rounded=0;whiteSpace=wrap;html=1;" vertex="1" parent="1">
          <mxGeometry x="1098" y="549" width="120" height="60" as="geometry" />
        </mxCell>
        <mxCell id="rN1POa6k1bQ06xmlDgiG-57" value="client&lt;div&gt;kafka&lt;/div&gt;" style="rounded=0;whiteSpace=wrap;html=1;" vertex="1" parent="1">
          <mxGeometry x="1098" y="664" width="120" height="60" as="geometry" />
        </mxCell>
        <mxCell id="rN1POa6k1bQ06xmlDgiG-60" style="edgeStyle=orthogonalEdgeStyle;rounded=0;orthogonalLoop=1;jettySize=auto;html=1;entryX=-0.025;entryY=0.383;entryDx=0;entryDy=0;entryPerimeter=0;" edge="1" parent="1" source="rN1POa6k1bQ06xmlDgiG-28" target="rN1POa6k1bQ06xmlDgiG-57">
          <mxGeometry relative="1" as="geometry" />
        </mxCell>
        <mxCell id="rN1POa6k1bQ06xmlDgiG-62" style="edgeStyle=orthogonalEdgeStyle;rounded=0;orthogonalLoop=1;jettySize=auto;html=1;entryX=0.5;entryY=0;entryDx=0;entryDy=0;" edge="1" parent="1" source="rN1POa6k1bQ06xmlDgiG-61" target="rN1POa6k1bQ06xmlDgiG-10">
          <mxGeometry relative="1" as="geometry" />
        </mxCell>
        <mxCell id="rN1POa6k1bQ06xmlDgiG-61" value="Правила&lt;div&gt;трансформации&lt;/div&gt;" style="shape=document;whiteSpace=wrap;html=1;boundedLbl=1;" vertex="1" parent="1">
          <mxGeometry x="434" y="380" width="120" height="80" as="geometry" />
        </mxCell>
        <mxCell id="rN1POa6k1bQ06xmlDgiG-64" style="edgeStyle=orthogonalEdgeStyle;rounded=0;orthogonalLoop=1;jettySize=auto;html=1;entryX=0;entryY=0.5;entryDx=0;entryDy=0;entryPerimeter=0;" edge="1" parent="1" source="rN1POa6k1bQ06xmlDgiG-16" target="rN1POa6k1bQ06xmlDgiG-47">
          <mxGeometry relative="1" as="geometry">
            <Array as="points">
              <mxPoint x="160" y="860" />
            </Array>
          </mxGeometry>
        </mxCell>
        <mxCell id="rN1POa6k1bQ06xmlDgiG-65" value="Холодное&lt;div&gt;хранилище&lt;/div&gt;" style="shape=cylinder3;whiteSpace=wrap;html=1;boundedLbl=1;backgroundOutline=1;size=15;fillColor=#dae8fc;strokeColor=#6c8ebf;" vertex="1" parent="1">
          <mxGeometry x="442" y="950" width="100" height="80" as="geometry" />
        </mxCell>
        <mxCell id="rN1POa6k1bQ06xmlDgiG-66" style="edgeStyle=orthogonalEdgeStyle;rounded=0;orthogonalLoop=1;jettySize=auto;html=1;entryX=0.5;entryY=0;entryDx=0;entryDy=0;entryPerimeter=0;" edge="1" parent="1">
          <mxGeometry relative="1" as="geometry">
            <mxPoint x="490" y="900" as="sourcePoint" />
            <mxPoint x="491" y="950" as="targetPoint" />
          </mxGeometry>
        </mxCell>
        <mxCell id="rN1POa6k1bQ06xmlDgiG-68" value="Actor" style="shape=umlActor;verticalLabelPosition=bottom;verticalAlign=top;html=1;outlineConnect=0;" vertex="1" parent="1">
          <mxGeometry x="-12" y="855" width="30" height="60" as="geometry" />
        </mxCell>
        <mxCell id="rN1POa6k1bQ06xmlDgiG-69" style="edgeStyle=orthogonalEdgeStyle;rounded=0;orthogonalLoop=1;jettySize=auto;html=1;entryX=0;entryY=1;entryDx=0;entryDy=-15;entryPerimeter=0;" edge="1" parent="1" source="rN1POa6k1bQ06xmlDgiG-68" target="rN1POa6k1bQ06xmlDgiG-47">
          <mxGeometry relative="1" as="geometry" />
        </mxCell>
        <mxCell id="rN1POa6k1bQ06xmlDgiG-70" value="&lt;h1 style=&quot;margin-top: 0px;&quot;&gt;MVP 0.5&lt;/h1&gt;&lt;div&gt;1. Только API&lt;/div&gt;&lt;div&gt;2. Одну внутреннюю очередь&lt;/div&gt;&lt;div&gt;3. только json&lt;/div&gt;" style="text;html=1;whiteSpace=wrap;overflow=hidden;rounded=0;" vertex="1" parent="1">
          <mxGeometry x="1040" y="220" width="230" height="120" as="geometry" />
        </mxCell>
        <mxCell id="-myyph2VslJxMrbJhc3j-1" value="&lt;h1 style=&quot;margin-top: 0px; font-size: 19px;&quot;&gt;Stack&lt;/h1&gt;&lt;div style=&quot;font-size: 19px;&quot;&gt;&amp;nbsp; &amp;nbsp; &amp;nbsp; &amp;nbsp; &amp;nbsp;rabbit: native&lt;/div&gt;&lt;div style=&quot;font-size: 19px;&quot;&gt;&amp;nbsp; &amp;nbsp; &amp;nbsp; &amp;nbsp; &amp;nbsp;.net core 8.0&lt;/div&gt;&lt;div style=&quot;font-size: 19px;&quot;&gt;&amp;nbsp; &amp;nbsp; &amp;nbsp; &amp;nbsp; &amp;nbsp;react&amp;nbsp;&lt;/div&gt;&lt;div style=&quot;font-size: 19px;&quot;&gt;&amp;nbsp; &amp;nbsp; &amp;nbsp; &amp;nbsp; &amp;nbsp;либа для json transform&lt;/div&gt;" style="text;html=1;whiteSpace=wrap;overflow=hidden;rounded=0;fontSize=19;" vertex="1" parent="1">
          <mxGeometry x="280" y="220" width="400" height="140" as="geometry" />
        </mxCell>
        <mxCell id="-myyph2VslJxMrbJhc3j-2" value="&lt;h1 style=&quot;margin-top: 0px; font-size: 19px;&quot;&gt;Структура проекта&lt;/h1&gt;&lt;div style=&quot;font-size: 19px;&quot;&gt;&amp;nbsp; &amp;nbsp; &amp;nbsp; &amp;nbsp; &amp;nbsp;Core&lt;/div&gt;&lt;div style=&quot;font-size: 19px;&quot;&gt;&amp;nbsp; &amp;nbsp; &amp;nbsp; &amp;nbsp; &amp;nbsp;Transformation&lt;/div&gt;&lt;div style=&quot;font-size: 19px;&quot;&gt;&amp;nbsp; &amp;nbsp; &amp;nbsp; &amp;nbsp; &amp;nbsp;Inbound&lt;/div&gt;&lt;div style=&quot;font-size: 19px;&quot;&gt;&amp;nbsp; &amp;nbsp; &amp;nbsp; &amp;nbsp; &amp;nbsp;Outbound&lt;/div&gt;&lt;div style=&quot;font-size: 19px;&quot;&gt;&amp;nbsp; &amp;nbsp; &amp;nbsp; &amp;nbsp; &amp;nbsp;Configuration&lt;/div&gt;&lt;div style=&quot;font-size: 19px;&quot;&gt;&amp;nbsp; &amp;nbsp; &amp;nbsp; &amp;nbsp; &amp;nbsp;&lt;/div&gt;" style="text;html=1;whiteSpace=wrap;overflow=hidden;rounded=0;fontSize=19;" vertex="1" parent="1">
          <mxGeometry x="676" y="220" width="400" height="160" as="geometry" />
        </mxCell>
      </root>
    </mxGraphModel>
  </diagram>
  <diagram id="7_1k85FpaPnfeag6_5FO" name="Страница — 2">
    <mxGraphModel dx="1434" dy="854" grid="1" gridSize="10" guides="1" tooltips="1" connect="1" arrows="1" fold="1" page="1" pageScale="1" pageWidth="827" pageHeight="1169" math="0" shadow="0">
      <root>
        <mxCell id="0" />
        <mxCell id="1" parent="0" />
        <mxCell id="MpnveAMIo6eXT8nhdHCA-1" value="" style="rounded=0;whiteSpace=wrap;html=1;fillColor=#dae8fc;strokeColor=#6c8ebf;" vertex="1" parent="1">
          <mxGeometry x="150" y="120" width="510" height="490" as="geometry" />
        </mxCell>
      </root>
    </mxGraphModel>
  </diagram>
</mxfile>
